<?xml version="1.0" encoding="utf-8"?>
<?xml-stylesheet type="text/xsl" href="rss1.xsl"?>
<rss version="2.0" xmlns:atom="http://www.w3.org/2005/Atom" xmlns:content="http://purl.org/rss/1.0/modules/content/" xmlns:dc="http://purl.org/dc/elements/1.1/" xmlns:media="http://search.yahoo.com/mrss/">
<channel>
 <title>Getty</title>
 <link>http://www.gettyimg.com/</link>
 <atom:link href="http://www.gettyimg.com/" rel="self" type="application/rss+xml" />

 
                <item>
                <title><![CDATA[【Singles (lossless)】FLAC - BLACKPINK - The 1st Single Album - «Square One» [FLAC 24Bit/192kHz]]]></title>
                <link><![CDATA[https://sharemania.us/threads/blackpink-the-1st-single-album-%C2%ABsquare-one%C2%BB-flac-24bit-192khz.226499/]]></link>
                <description><![CDATA[<article>
<blockquote class="messageText SelectQuoteContainer ugc baseHtml">
<div style="text-align: center"><img src="https://i.imgur.com/C1UvWF3.jpg" class="bbCodeImage LbImage" alt="[​IMG]" data-url="https://i.imgur.com/C1UvWF3.jpg" style=""> <br>
<br>
<div data-s9e-mediaembed="youtube" style="display:inline-block;width:100%;max-width:640px"><div style="overflow:hidden;position:relative;padding-bottom:56.25%"><iframe allowfullscreen="" scrolling="no" style="background:url(https://i.ytimg.com/vi/bwmSjveL3Lc/hqdefault.jpg) 50% 50% / cover;border:0;height:100%;left:0;position:absolute;width:100%" src="https://www.youtube.com/embed/bwmSjveL3Lc"></iframe></div></div><br>
<div data-s9e-mediaembed="youtube" style="display:inline-block;width:100%;max-width:640px"><div style="overflow:hidden;position:relative;padding-bottom:56.25%"><iframe allowfullscreen="" scrolling="no" style="background:url(https://i.ytimg.com/vi/dISNgvVpWlo/hqdefault.jpg) 50% 50% / cover;border:0;height:100%;left:0;position:absolute;width:100%" src="https://www.youtube.com/embed/dISNgvVpWlo"></iframe></div></div><br>
<br>
<div data-s9e-mediaembed="spotify" style="display:inline-block;width:100%;max-width:400px"><div style="overflow:hidden;position:relative;padding-bottom:120%"><iframe allowfullscreen="" scrolling="no" style="border:0;height:100%;left:0;position:absolute;width:100%" src="https://embed.spotify.com/?view=coverart&amp;uri=spotify:album:0FOOodYRlj7gzh7q7IjmNZ"></iframe></div></div><br>
<br>
<div class="bbCodeBlock bbCodeVfcHH HiddenContent">
<div class="attribution type">Hidden Content:</div>
<blockquote>You must either reply or click 'Like' to see the hidden information contained here.</blockquote>
</div></div>
<div class="messageTextEndMarker">&nbsp;</div>
</blockquote>
</article>]]></description>
                <author><![CDATA[WithLoveSNSD]]></author>
                </item>

                
                <item>
                <title><![CDATA[【UPSCALED】Billie Eilish - ocean eyes [4K AI Upscale | HEVC 10-bit | PCM 24-bit | DD+ Dolby Atmos]]]></title>
                <link><![CDATA[https://sharemania.us/threads/billie-eilish-ocean-eyes-4k-ai-upscale-hevc-10-bit-pcm-24-bit-dd-dolby-atmos.226498/]]></link>
                <description><![CDATA[<article>
<blockquote class="messageText SelectQuoteContainer ugc baseHtml">
<b><img src="https://images2.imgbox.com/c4/37/Bp6lEdqT_o.png" class="bbCodeImage LbImage" alt="[​IMG]" data-url="https://images2.imgbox.com/c4/37/Bp6lEdqT_o.png" style=""> <br>
<img src="https://images2.imgbox.com/c4/21/VJIQWubS_o.jpg" class="bbCodeImage LbImage" alt="[​IMG]" data-url="https://images2.imgbox.com/c4/21/VJIQWubS_o.jpg" style=""> <br>
<br>
Genre: <span style="color: #0059b3">Pop</span> <br>
Style: <span style="color: #0059b3">Indie Pop</span> <br>
Year: <span style="color: #0059b3">2016</span> <br>
Video Source: <span style="color: #0059b3">Vimeo, 1080p</span><br>
Audio Source: <span style="color: #0059b3">Qobuz &amp; Tidal, thanks 2 moi &amp; DanceDanceDance</span><br>
</b><br>
"<b>Ocean Eyes</b>" is a single by American singer Billie Eilish and was released as the lead single from her debut EP, <i>Don't Smile at Me</i>, and the soundtrack album to the film <i>Everything, Everything</i> (2017). The song was written and produced by Eilish's older brother, Finneas O'Connell, and was originally written for his band. Finneas gave the song to Eilish for her dance performance after realizing the song suited her vocals. It was originally released on SoundCloud on November 18, 2015, but was later re-released commercially on November 18, 2016, as a single through Darkroom and Interscope Records.<br>
<br>
"Ocean Eyes" received mainly positive reviews from critics, several of whom praised its composition and the lyrical content. The song was commercially successful, reaching number 84 on the US <i>Billboard</i> Hot 100. It peaked within the top 60 in the record charts of several countries and peaked at number 72 on the UK Singles Chart. "Ocean Eyes" has received several certifications, including a triple-platinum certification by the Recording Industry Association of America (RIAA).<br>
<br>
To promote the song, the track was accompanied by a music video, directed by Megan Thompson and released on March 24, 2016. A dance performance video was released on November 22, 2016. Eilish included the track on the setlists of her 2019 When We All Fall Asleep Tour, her 2020 Where Do We Go? World Tour, and her 2022 Happier Than Ever, The World Tour.<br>
<br>
<b>Release Info</b><br>
The video track is upscaled to 4K with Topaz Video AI and encoded to HEVC 10-bit.<br>
The PCM track is lossless (Qobuz HiRes 24-bit) and synced with Adobe Audition.<br>
The Dolby Atmos track is lossy (E-AC3), synced to the video track by muxing.<br>
The timed lyrics are synced &amp; edited. Enable the subtitles to see the lyrics.<br>
<br>
<div class="ToggleTriggerAnchor bbCodeSpoilerContainer">
<button type="button" class="button bbCodeSpoilerButton ToggleTrigger Tooltip JsOnly" data-target="> .SpoilerTarget"><span>Spoiler: <span class="SpoilerTitle">Media Info</span></span></button>
<div class="SpoilerTarget bbCodeSpoilerText">
<div class="bbCodeBlock bbCodeCode">
<div class="type">Code:</div>
<pre>General
Unique ID                      : 100923665751516628332612598019056007051 (0x4BED30E52ADC8B758C94437DA620F78B)
Complete name                  : Billie Eilish - ocean eyes.mkv
Format                         : Matroska
Format version                 : Version 4 / Version 2
File size                      : 531 MiB
Duration                       : 3 min 20 s
Overall bit rate               : 22.2 Mb/s
Frame rate                     : 23.976 FPS
Encoded date                   : 2023-08-17 12:00:25 UTC
Writing application            : mkvmerge v76.0 ('Celebration') 64-bit
Writing library                : libebml v1.4.4 + libmatroska v1.7.1

Video
ID                             : 1
Format                         : HEVC
Format/Info                    : High Efficiency Video Coding
Format profile                 : Main 10@L5@Main
Codec ID                       : V_MPEGH/ISO/HEVC
Duration                       : 3 min 20 s
Bit rate                       : 19.1 Mb/s
Width                          : 3 840 pixels
Height                         : 2 160 pixels
Display aspect ratio           : 16:9
Frame rate mode                : Constant
Frame rate                     : 23.976 (24000/1001) FPS
Color space                    : YUV
Chroma subsampling             : 4:2:0
Bit depth                      : 10 bits
Bits/(Pixel*Frame)             : 0.096
Stream size                    : 456 MiB (86%)
Default                        : Yes
Forced                         : No
Color range                    : Limited
Color primaries                : BT.709
Transfer characteristics       : BT.709
Matrix coefficients            : BT.709

Audio #1
ID                             : 2
Format                         : PCM
Format settings                : Little / Signed
Codec ID                       : A_PCM/INT/LIT
Duration                       : 3 min 20 s
Bit rate mode                  : Constant
Bit rate                       : 2 117 kb/s
Channel(s)                     : 2 channels
Sampling rate                  : 44.1 kHz
Frame rate                     : 25.004 FPS (1764 SPF)
Bit depth                      : 24 bits
Stream size                    : 50.6 MiB (10%)
Title                          : Lossless 24-bit
Language                       : English
Default                        : Yes
Forced                         : No

Audio #2
ID                             : 3
Format                         : E-AC-3 JOC
Format/Info                    : Enhanced AC-3 with Joint Object Coding
Commercial name                : Dolby Digital Plus with Dolby Atmos
Codec ID                       : A_EAC3
Duration                       : 3 min 20 s
Bit rate mode                  : Constant
Bit rate                       : 768 kb/s
Channel(s)                     : 6 channels
Channel layout                 : L R C LFE Ls Rs
Sampling rate                  : 48.0 kHz
Frame rate                     : 31.250 FPS (1536 SPF)
Compression mode               : Lossy
Delay relative to video        : 5 ms
Stream size                    : 18.3 MiB (3%)
Title                          : Dolby Digital Plus with Dolby Atmos
Language                       : English
Service kind                   : Complete Main
Default                        : No
Forced                         : No
Complexity index               : 16
Number of dynamic objects      : 15
Bed channel count              : 1 channel
Bed channel configuration      : LFE

Audio #3
ID                             : 4
Format                         : AAC LC
Format/Info                    : Advanced Audio Codec Low Complexity
Codec ID                       : A_AAC-2
Duration                       : 3 min 20 s
Bit rate                       : 256 kb/s
Channel(s)                     : 2 channels
Channel layout                 : L R
Sampling rate                  : 48.0 kHz
Frame rate                     : 46.875 FPS (1024 SPF)
Compression mode               : Lossy
Stream size                    : 6.12 MiB (1%)
Title                          : Original
Default                        : No
Forced                         : No

Text
ID                             : 5
Format                         : UTF-8
Codec ID                       : S_TEXT/UTF8
Codec ID/Info                  : UTF-8 Plain Text
Duration                       : 2 min 57 s
Bit rate                       : 39 b/s
Frame rate                     : 0.174 FPS
Count of elements              : 31
Stream size                    : 876 Bytes (0%)
Title                          : Lyrics
Language                       : English
Default                        : No
Forced                         : No
</pre>
</div></div>
</div><br>
<div class="bbCodeBlock bbCodeVfcHH HiddenContent">
<div class="attribution type">Hidden Content:</div>
<blockquote>You must reply before you can see the hidden data contained here.</blockquote>
</div>
<div class="messageTextEndMarker">&nbsp;</div>
</blockquote>
</article>]]></description>
                <author><![CDATA[ADHDerby]]></author>
                </item>

                </channel></rss>